<svg width="225" height="283" viewBox="0 0 225 283" fill="none" xmlns="http://www.w3.org/2000/svg">
<path d="M77.9052 10.0679C80.528 7.46234 84.0749 6 87.7719 6H205C212.732 6 219 12.268 219 20V263C219 270.732 212.732 277 205 277H20C12.268 277 6 270.732 6 263V87.3261C6 83.597 7.48771 80.0221 10.1332 77.394L77.9052 10.0679Z" fill="#32353D"/>
<path fill-rule="evenodd" clip-rule="evenodd" d="M225 20V263C225 274.046 216.046 283 205 283H20C8.95431 283 0 274.046 0 263V87.3261C0 81.9989 2.1253 76.8918 5.90461 73.1373L73.6766 5.81127C77.4234 2.08906 82.4905 0 87.7719 0H205C216.046 0 225 8.9543 225 20ZM87.7719 6C84.0749 6 80.528 7.46234 77.9052 10.0679L10.1332 77.394C7.48771 80.0221 6 83.597 6 87.3261V263C6 270.732 12.268 277 20 277H205C212.732 277 219 270.732 219 263V20C219 12.268 212.732 6 205 6H87.7719Z" fill="#535663"/>
<path d="M15.4142 79.5858C14.1543 80.8457 15.0466 83 16.8284 83H83C84.1046 83 85 82.1046 85 81V14.8284C85 13.0466 82.8457 12.1543 81.5858 13.4142L15.4142 79.5858Z" fill="#535663"/>
<path d="M24 123.5C24 120.462 26.4624 118 29.5 118H67.5C70.5376 118 73 120.462 73 123.5C73 126.538 70.5376 129 67.5 129H29.5C26.4624 129 24 126.538 24 123.5Z" fill="#6859CB"/>
<path d="M24 146.5C24 143.462 26.4624 141 29.5 141H118.5C121.538 141 124 143.462 124 146.5C124 149.538 121.538 152 118.5 152H29.5C26.4624 152 24 149.538 24 146.5Z" fill="#6859CB"/>
<path d="M24 169.5C24 166.462 26.4624 164 29.5 164H156.5C159.538 164 162 166.462 162 169.5C162 172.538 159.538 175 156.5 175H29.5C26.4624 175 24 172.538 24 169.5Z" fill="#6859CB"/>
<path d="M24 192.5C24 189.462 26.4624 187 29.5 187H114.5C117.538 187 120 189.462 120 192.5C120 195.538 117.538 198 114.5 198H29.5C26.4624 198 24 195.538 24 192.5Z" fill="#6859CB"/>
<path d="M24 215.5C24 212.462 26.4624 210 29.5 210H124.5C127.538 210 130 212.462 130 215.5C130 218.538 127.538 221 124.5 221H29.5C26.4624 221 24 218.538 24 215.5Z" fill="#6859CB"/>
<path d="M181.213 253.447C179.53 253.437 177.905 253.154 176.339 252.6C174.784 252.047 173.388 251.146 172.152 249.9C170.917 248.653 169.936 247.002 169.212 244.946C168.498 242.89 168.141 240.365 168.141 237.371C168.152 234.623 168.466 232.167 169.084 230.005C169.713 227.831 170.608 225.988 171.769 224.475C172.941 222.963 174.342 221.812 175.972 221.024C177.602 220.225 179.429 219.825 181.453 219.825C183.637 219.825 185.565 220.251 187.238 221.104C188.91 221.945 190.252 223.091 191.265 224.539C192.287 225.988 192.905 227.613 193.118 229.413H186.295C186.028 228.273 185.469 227.379 184.617 226.729C183.765 226.079 182.71 225.754 181.453 225.754C179.322 225.754 177.703 226.681 176.595 228.534C175.498 230.388 174.938 232.908 174.917 236.093H175.141C175.631 235.124 176.291 234.298 177.122 233.616C177.964 232.924 178.917 232.396 179.983 232.034C181.059 231.661 182.193 231.475 183.386 231.475C185.325 231.475 187.051 231.933 188.564 232.849C190.077 233.755 191.27 235.001 192.143 236.588C193.017 238.176 193.454 239.992 193.454 242.038C193.454 244.254 192.937 246.224 191.904 247.95C190.881 249.676 189.448 251.029 187.605 252.009C185.773 252.979 183.642 253.458 181.213 253.447ZM181.181 248.014C182.246 248.014 183.2 247.759 184.042 247.247C184.883 246.736 185.544 246.043 186.023 245.17C186.502 244.296 186.742 243.316 186.742 242.229C186.742 241.143 186.502 240.168 186.023 239.305C185.554 238.442 184.904 237.755 184.074 237.244C183.243 236.732 182.294 236.477 181.229 236.477C180.43 236.477 179.69 236.626 179.008 236.924C178.337 237.222 177.745 237.638 177.234 238.17C176.733 238.703 176.339 239.321 176.051 240.024C175.764 240.717 175.62 241.457 175.62 242.245C175.62 243.3 175.86 244.264 176.339 245.138C176.829 246.011 177.49 246.709 178.321 247.231C179.162 247.753 180.116 248.014 181.181 248.014Z" fill="#535663"/>
</svg>
